# xmcd CD database file
#
# Track frame offsets:
#	183
#	15100
#	28928
#	42035
#	57803
#	71320
#	83748
#	97085
#	107693
#	120625
#	136630
#	147285
#	157560
#	172385
#	185860
#	198723
#
# Disc length: 2884 seconds
#
# Revision: 2
# Processed by: cddbd v1.5.2PL0 Copyright (c) Steve Scherf et al.
# Submitted via: CDex 1.70beta2
#
DISCID=d20b4210
DTITLE=Various Artist - 206 - Die Superhits der Volksmusik - 03 - 91
DYEAR=1991
DGENRE=Volksmusik
TTITLE0=Stefan Mross - Zillertaler Hochzeitsmarsch
TTITLE1=Marianne and Michael - Wann fang denn endlich d'Musi an
TTITLE2=Enzmann - Fischkopfmuschelsucherjodelenzian
TTITLE3=Nockalm Quintett - Weine nicht um ihn
TTITLE4=Alexandra und Andy Borg - Jedes Bäumerl wird ein Baum
TTITLE5=Orig. Tiroler Echo - Die Sterne am Himmel
TTITLE6=Hansl Krönauer - Die erste Liebe
TTITLE7=Inge and Maria - Fahr nicht schneller als dein Schutzengel
TTITLE8=Patrick Lindner - und wenn's Nacht wird, gibt's a Busserl
TTITLE9=Walter Oberbrandacher - In München wohnt mei Spatzerl
TTITLE10=Orig. Grenzland Quintett - Frau Meier
TTITLE11=Michael Klostermann - Bring mir schnell ein Bier
TTITLE12=Bianca - Schöner Rosengarten
TTITLE13=Pitztaler Nachtigallen - In der Liebe verstehn wir uns blind
TTITLE14=Alpen Express - Aufsteh'n
TTITLE15=Walter Scholz - Trompeten Bolero
EXTD=CD von I.B.\n YEAR: 1991
EXTT0=
EXTT1=
EXTT2=
EXTT3=
EXTT4=
EXTT5=
EXTT6=
EXTT7=
EXTT8=
EXTT9=
EXTT10=
EXTT11=
EXTT12=
EXTT13=
EXTT14=
EXTT15=
PLAYORDER=
